<?xml version="1.0" encoding="UTF-8" standalone="no"?>
<!DOCTYPE svg PUBLIC "-//W3C//DTD SVG 1.1//EN" "http://www.w3.org/Graphics/SVG/1.1/DTD/svg11.dtd">
<!-- Generated by graphviz version 2.40.1 (20161225.0304)
 -->
<!-- Title: Problemi Pages: 1 -->
<svg width="410pt" height="447pt" viewBox="0.00 0.00 409.62 446.80" xmlns="http://www.w3.org/2000/svg" xmlns:xlink="http://www.w3.org/1999/xlink">
<g id="graph0" class="graph" transform="scale(1 1) rotate(0) translate(4 442.8)">
<title>Problemi</title>
<polygon fill="#ffffff" stroke="transparent" points="-4,4 -4,-442.8 405.6172,-442.8 405.6172,4 -4,4"/>
<text text-anchor="middle" x="200.8086" y="-8.2" font-family="Times,serif" font-size="14.00" fill="#000000">Tipologie di Problemi</text>
<!-- Problemi ben definiti -->
<g id="node1" class="node">
<title>Problemi ben definiti</title>
<polygon fill="#add8e6" stroke="#000000" points="142.3612,-87.8 7.3976,-87.8 7.3976,-51.8 142.3612,-51.8 142.3612,-87.8"/>
<text text-anchor="middle" x="74.8794" y="-65.6" font-family="Times,serif" font-size="14.00" fill="#000000">Problemi ben definiti</text>
</g>
<!-- Problemi matematici -->
<g id="node2" class="node">
<title>Problemi matematici</title>
<polygon fill="#add8e6" stroke="#000000" points="384.7161,-114.8 251.6529,-114.8 251.6529,-78.8 384.7161,-78.8 384.7161,-114.8"/>
<text text-anchor="middle" x="318.1845" y="-92.6" font-family="Times,serif" font-size="14.00" fill="#000000">Problemi matematici</text>
</g>
<!-- Problemi ben definiti&#45;&gt;Problemi matematici -->
<g id="edge1" class="edge">
<title>Problemi ben definiti-&gt;Problemi matematici</title>
<path fill="none" stroke="#000000" d="M142.6534,-77.321C173.3579,-80.7283 209.8008,-84.7725 241.5021,-88.2904"/>
<polygon fill="#000000" stroke="#000000" points="241.2898,-91.7883 251.6149,-89.4126 242.0619,-84.831 241.2898,-91.7883"/>
<text text-anchor="middle" x="192.2553" y="-90" font-family="Times,serif" font-size="14.00" fill="#000000">Esempio</text>
</g>
<!-- Problemi di logica -->
<g id="node3" class="node">
<title>Problemi di logica</title>
<polygon fill="#add8e6" stroke="#000000" points="378.1159,-60.8 258.2531,-60.8 258.2531,-24.8 378.1159,-24.8 378.1159,-60.8"/>
<text text-anchor="middle" x="318.1845" y="-38.6" font-family="Times,serif" font-size="14.00" fill="#000000">Problemi di logica</text>
</g>
<!-- Problemi ben definiti&#45;&gt;Problemi di logica -->
<g id="edge2" class="edge">
<title>Problemi ben definiti-&gt;Problemi di logica</title>
<path fill="none" stroke="#000000" d="M142.6534,-62.279C175.5297,-58.6307 214.9848,-54.2523 248.154,-50.5714"/>
<polygon fill="#000000" stroke="#000000" points="248.679,-54.0347 258.2319,-49.453 247.9068,-47.0774 248.679,-54.0347"/>
<text text-anchor="middle" x="192.2553" y="-63" font-family="Times,serif" font-size="14.00" fill="#000000">Esempio</text>
</g>
<!-- Problemi mal definiti -->
<g id="node4" class="node">
<title>Problemi mal definiti</title>
<polygon fill="#add8e6" stroke="#000000" points="142.6426,-222.8 7.1162,-222.8 7.1162,-186.8 142.6426,-186.8 142.6426,-222.8"/>
<text text-anchor="middle" x="74.8794" y="-200.6" font-family="Times,serif" font-size="14.00" fill="#000000">Problemi mal definiti</text>
</g>
<!-- Questioni etiche -->
<g id="node5" class="node">
<title>Questioni etiche</title>
<polygon fill="#add8e6" stroke="#000000" points="372.0477,-276.8 264.3213,-276.8 264.3213,-240.8 372.0477,-240.8 372.0477,-276.8"/>
<text text-anchor="middle" x="318.1845" y="-254.6" font-family="Times,serif" font-size="14.00" fill="#000000">Questioni etiche</text>
</g>
<!-- Problemi mal definiti&#45;&gt;Questioni etiche -->
<g id="edge3" class="edge">
<title>Problemi mal definiti-&gt;Questioni etiche</title>
<path fill="none" stroke="#000000" d="M142.8405,-220.2187C151.2309,-222.1067 159.6906,-224.0029 167.7588,-225.8 196.1063,-232.114 227.4799,-239.0111 254.208,-244.8597"/>
<polygon fill="#000000" stroke="#000000" points="253.6915,-248.3294 264.2084,-247.0465 255.1869,-241.4909 253.6915,-248.3294"/>
<text text-anchor="middle" x="192.2553" y="-241" font-family="Times,serif" font-size="14.00" fill="#000000">Esempio</text>
</g>
<!-- Problemi sociali complessi -->
<g id="node6" class="node">
<title>Problemi sociali complessi</title>
<polygon fill="#add8e6" stroke="#000000" points="401.55,-222.8 234.819,-222.8 234.819,-186.8 401.55,-186.8 401.55,-222.8"/>
<text text-anchor="middle" x="318.1845" y="-200.6" font-family="Times,serif" font-size="14.00" fill="#000000">Problemi sociali complessi</text>
</g>
<!-- Problemi mal definiti&#45;&gt;Problemi sociali complessi -->
<g id="edge4" class="edge">
<title>Problemi mal definiti-&gt;Problemi sociali complessi</title>
<path fill="none" stroke="#000000" d="M142.6534,-204.8C167.9637,-204.8 197.1732,-204.8 224.4118,-204.8"/>
<polygon fill="#000000" stroke="#000000" points="224.7426,-208.3001 234.7426,-204.8 224.7425,-201.3001 224.7426,-208.3001"/>
<text text-anchor="middle" x="192.2553" y="-209" font-family="Times,serif" font-size="14.00" fill="#000000">Esempio</text>
</g>
<!-- Situazioni di negoziazione -->
<g id="node7" class="node">
<title>Situazioni di negoziazione</title>
<polygon fill="#add8e6" stroke="#000000" points="400.2042,-168.8 236.1648,-168.8 236.1648,-132.8 400.2042,-132.8 400.2042,-168.8"/>
<text text-anchor="middle" x="318.1845" y="-146.6" font-family="Times,serif" font-size="14.00" fill="#000000">Situazioni di negoziazione</text>
</g>
<!-- Problemi mal definiti&#45;&gt;Situazioni di negoziazione -->
<g id="edge5" class="edge">
<title>Problemi mal definiti-&gt;Situazioni di negoziazione</title>
<path fill="none" stroke="#000000" d="M142.8464,-189.5537C151.2358,-187.6792 159.6936,-185.7931 167.7588,-184 186.6555,-179.7988 206.8921,-175.3191 226.2002,-171.0544"/>
<polygon fill="#000000" stroke="#000000" points="227.1902,-174.4202 236.2004,-168.8464 225.6809,-167.5848 227.1902,-174.4202"/>
<text text-anchor="middle" x="192.2553" y="-189" font-family="Times,serif" font-size="14.00" fill="#000000">Esempio</text>
</g>
<!-- Problemi mal strutturati -->
<g id="node8" class="node">
<title>Problemi mal strutturati</title>
<polygon fill="#add8e6" stroke="#000000" points="149.6384,-384.8 .1204,-384.8 .1204,-348.8 149.6384,-348.8 149.6384,-384.8"/>
<text text-anchor="middle" x="74.8794" y="-362.6" font-family="Times,serif" font-size="14.00" fill="#000000">Problemi mal strutturati</text>
</g>
<!-- Diagnosi medica -->
<g id="node9" class="node">
<title>Diagnosi medica</title>
<polygon fill="#add8e6" stroke="#000000" points="373.6575,-438.8 262.7115,-438.8 262.7115,-402.8 373.6575,-402.8 373.6575,-438.8"/>
<text text-anchor="middle" x="318.1845" y="-416.6" font-family="Times,serif" font-size="14.00" fill="#000000">Diagnosi medica</text>
</g>
<!-- Problemi mal strutturati&#45;&gt;Diagnosi medica -->
<g id="edge6" class="edge">
<title>Problemi mal strutturati-&gt;Diagnosi medica</title>
<path fill="none" stroke="#000000" d="M149.6428,-383.7477C155.7706,-385.1234 161.869,-386.4881 167.7588,-387.8 195.6434,-394.0109 226.4563,-400.786 252.8952,-406.5724"/>
<polygon fill="#000000" stroke="#000000" points="252.2819,-410.0209 262.7988,-408.7384 253.7776,-403.1825 252.2819,-410.0209"/>
<text text-anchor="middle" x="192.2553" y="-402" font-family="Times,serif" font-size="14.00" fill="#000000">Esempio</text>
</g>
<!-- Pianificazione aziendale -->
<g id="node10" class="node">
<title>Pianificazione aziendale</title>
<polygon fill="#add8e6" stroke="#000000" points="394.6179,-384.8 241.7511,-384.8 241.7511,-348.8 394.6179,-348.8 394.6179,-384.8"/>
<text text-anchor="middle" x="318.1845" y="-362.6" font-family="Times,serif" font-size="14.00" fill="#000000">Pianificazione aziendale</text>
</g>
<!-- Problemi mal strutturati&#45;&gt;Pianificazione aziendale -->
<g id="edge7" class="edge">
<title>Problemi mal strutturati-&gt;Pianificazione aziendale</title>
<path fill="none" stroke="#000000" d="M149.8642,-366.8C175.7404,-366.8 204.9369,-366.8 231.6599,-366.8"/>
<polygon fill="#000000" stroke="#000000" points="231.7685,-370.3001 241.7685,-366.8 231.7685,-363.3001 231.7685,-370.3001"/>
<text text-anchor="middle" x="192.2553" y="-371" font-family="Times,serif" font-size="14.00" fill="#000000">Esempio</text>
</g>
<!-- Risoluzione di conflitti -->
<g id="node11" class="node">
<title>Risoluzione di conflitti</title>
<polygon fill="#add8e6" stroke="#000000" points="390.7855,-330.8 245.5835,-330.8 245.5835,-294.8 390.7855,-294.8 390.7855,-330.8"/>
<text text-anchor="middle" x="318.1845" y="-308.6" font-family="Times,serif" font-size="14.00" fill="#000000">Risoluzione di conflitti</text>
</g>
<!-- Problemi mal strutturati&#45;&gt;Risoluzione di conflitti -->
<g id="edge8" class="edge">
<title>Problemi mal strutturati-&gt;Risoluzione di conflitti</title>
<path fill="none" stroke="#000000" d="M149.6477,-350.0349C155.7744,-348.6675 161.8712,-347.309 167.7588,-346 189.719,-341.1177 213.4886,-335.8594 235.5077,-330.9993"/>
<polygon fill="#000000" stroke="#000000" points="236.4776,-334.3695 245.4886,-328.797 234.9693,-327.5339 236.4776,-334.3695"/>
<text text-anchor="middle" x="192.2553" y="-351" font-family="Times,serif" font-size="14.00" fill="#000000">Esempio</text>
</g>
</g>
</svg>