<?xml version="1.0" encoding="UTF-8" standalone="no"?><!DOCTYPE svg PUBLIC "-//W3C//DTD SVG 1.1//EN" "http://www.w3.org/Graphics/SVG/1.1/DTD/svg11.dtd"><!-- Generated by graphviz version 2.40.1 (20161225.0304)
 --><!-- Title: ProblemClassification Pages: 1 --><svg xmlns="http://www.w3.org/2000/svg" xmlns:xlink="http://www.w3.org/1999/xlink" width="718pt" height="476pt" viewBox="0.00 0.00 717.86 476.00">
<g id="graph0" class="graph" transform="scale(1 1) rotate(0) translate(4 472)">
<title>ProblemClassification</title>
<polygon fill="#ffffff" stroke="transparent" points="-4,4 -4,-472 713.8594,-472 713.8594,4 -4,4"/>
<!-- ProblemNotoConSoluzioneNota -->
<g id="node1" class="node">
<title>ProblemNotoConSoluzioneNota</title>
<polygon fill="none" stroke="#000000" points="226.8836,-90 20.8444,-90 20.8444,-54 226.8836,-54 226.8836,-90"/>
<text text-anchor="middle" x="123.864" y="-67.8" font-family="Times,serif" font-size="14.00" fill="#000000">Problema noto con soluzione nota</text>
</g>
<!-- Risolvi equazione quadratica -->
<g id="node4" class="node">
<title>Risolvi equazione quadratica</title>
<polygon fill="none" stroke="#000000" points="585.7966,-144 407.7908,-144 407.7908,-108 585.7966,-108 585.7966,-144"/>
<text text-anchor="middle" x="496.7937" y="-121.8" font-family="Times,serif" font-size="14.00" fill="#000000">Risolvi equazione quadratica</text>
</g>
<!-- ProblemNotoConSoluzioneNota&#45;&gt;Risolvi equazione quadratica -->
<g id="edge1" class="edge">
<title>ProblemNotoConSoluzioneNota-&gt;Risolvi equazione quadratica</title>
<path fill="none" stroke="#000000" d="M226.9601,-90.0546C245.8229,-93.175 265.3503,-96.2848 283.728,-99 320.9,-104.4919 361.8236,-109.844 397.7848,-114.3153"/>
<polygon fill="#000000" stroke="#000000" points="397.4349,-117.7986 407.7889,-115.5525 398.2941,-110.8516 397.4349,-117.7986"/>
</g>
<!-- Calcola la media di un insieme di numeri -->
<g id="node5" class="node">
<title>Calcola la media di un insieme di numeri</title>
<polygon fill="none" stroke="#000000" points="619.8545,-90 373.7329,-90 373.7329,-54 619.8545,-54 619.8545,-90"/>
<text text-anchor="middle" x="496.7937" y="-67.8" font-family="Times,serif" font-size="14.00" fill="#000000">Calcola la media di un insieme di numeri</text>
</g>
<!-- ProblemNotoConSoluzioneNota&#45;&gt;Calcola la media di un insieme di numeri -->
<g id="edge2" class="edge">
<title>ProblemNotoConSoluzioneNota-&gt;Calcola la media di un insieme di numeri</title>
<path fill="none" stroke="#000000" d="M227.2505,-72C269.4353,-72 318.7512,-72 363.5837,-72"/>
<polygon fill="#000000" stroke="#000000" points="363.6738,-75.5001 373.6738,-72 363.6737,-68.5001 363.6738,-75.5001"/>
</g>
<!-- Ordina un array di numeri -->
<g id="node6" class="node">
<title>Ordina un array di numeri</title>
<polygon fill="none" stroke="#000000" points="577.9636,-36 415.6238,-36 415.6238,0 577.9636,0 577.9636,-36"/>
<text text-anchor="middle" x="496.7937" y="-13.8" font-family="Times,serif" font-size="14.00" fill="#000000">Ordina un array di numeri</text>
</g>
<!-- ProblemNotoConSoluzioneNota&#45;&gt;Ordina un array di numeri -->
<g id="edge3" class="edge">
<title>ProblemNotoConSoluzioneNota-&gt;Ordina un array di numeri</title>
<path fill="none" stroke="#000000" d="M226.9601,-53.9454C245.8229,-50.825 265.3503,-47.7152 283.728,-45 323.5984,-39.1094 367.7847,-33.3797 405.5344,-28.7251"/>
<polygon fill="#000000" stroke="#000000" points="405.9932,-32.1952 415.4927,-27.5037 405.1409,-25.2473 405.9932,-32.1952"/>
</g>
<!-- ProblemNotoConSoluzioneSconosciuta -->
<g id="node2" class="node">
<title>ProblemNotoConSoluzioneSconosciuta</title>
<polygon fill="none" stroke="#000000" points="247.5921,-252 .1359,-252 .1359,-216 247.5921,-216 247.5921,-252"/>
<text text-anchor="middle" x="123.864" y="-229.8" font-family="Times,serif" font-size="14.00" fill="#000000">Problema noto con soluzione sconosciuta</text>
</g>
<!-- Ottimizzazione di una funzione -->
<g id="node7" class="node">
<title>Ottimizzazione di una funzione</title>
<polygon fill="none" stroke="#000000" points="592.9025,-306 400.6849,-306 400.6849,-270 592.9025,-270 592.9025,-306"/>
<text text-anchor="middle" x="496.7937" y="-283.8" font-family="Times,serif" font-size="14.00" fill="#000000">Ottimizzazione di una funzione</text>
</g>
<!-- ProblemNotoConSoluzioneSconosciuta&#45;&gt;Ottimizzazione di una funzione -->
<g id="edge4" class="edge">
<title>ProblemNotoConSoluzioneSconosciuta-&gt;Ottimizzazione di una funzione</title>
<path fill="none" stroke="#000000" d="M226.9601,-252.0546C245.8229,-255.175 265.3503,-258.2848 283.728,-261 318.475,-266.1336 356.5001,-271.1451 390.6859,-275.4292"/>
<polygon fill="#000000" stroke="#000000" points="390.3344,-278.9124 400.6905,-276.676 391.2002,-271.9661 390.3344,-278.9124"/>
</g>
<!-- Risolvi un sistema lineare di equazioni -->
<g id="node8" class="node">
<title>Risolvi un sistema lineare di equazioni</title>
<polygon fill="none" stroke="#000000" points="613.6384,-252 379.949,-252 379.949,-216 613.6384,-216 613.6384,-252"/>
<text text-anchor="middle" x="496.7937" y="-229.8" font-family="Times,serif" font-size="14.00" fill="#000000">Risolvi un sistema lineare di equazioni</text>
</g>
<!-- ProblemNotoConSoluzioneSconosciuta&#45;&gt;Risolvi un sistema lineare di equazioni -->
<g id="edge5" class="edge">
<title>ProblemNotoConSoluzioneSconosciuta-&gt;Risolvi un sistema lineare di equazioni</title>
<path fill="none" stroke="#000000" d="M247.7851,-234C286.9766,-234 330.3372,-234 369.7441,-234"/>
<polygon fill="#000000" stroke="#000000" points="369.9399,-237.5001 379.9399,-234 369.9399,-230.5001 369.9399,-237.5001"/>
</g>
<!-- Ricerca binaria in un array -->
<g id="node9" class="node">
<title>Ricerca binaria in un array</title>
<polygon fill="none" stroke="#000000" points="579.5521,-198 414.0353,-198 414.0353,-162 579.5521,-162 579.5521,-198"/>
<text text-anchor="middle" x="496.7937" y="-175.8" font-family="Times,serif" font-size="14.00" fill="#000000">Ricerca binaria in un array</text>
</g>
<!-- ProblemNotoConSoluzioneSconosciuta&#45;&gt;Ricerca binaria in un array -->
<g id="edge6" class="edge">
<title>ProblemNotoConSoluzioneSconosciuta-&gt;Ricerca binaria in un array</title>
<path fill="none" stroke="#000000" d="M226.9601,-215.9454C245.8229,-212.825 265.3503,-209.7152 283.728,-207 322.923,-201.2092 366.289,-195.5739 403.6105,-190.9626"/>
<polygon fill="#000000" stroke="#000000" points="404.4699,-194.3834 413.9683,-189.6899 403.6161,-187.4357 404.4699,-194.3834"/>
</g>
<!-- ProblemSconosciuto -->
<g id="node3" class="node">
<title>ProblemSconosciuto</title>
<polygon fill="none" stroke="#000000" points="193.6174,-414 54.1106,-414 54.1106,-378 193.6174,-378 193.6174,-414"/>
<text text-anchor="middle" x="123.864" y="-391.8" font-family="Times,serif" font-size="14.00" fill="#000000">Problema sconosciuto</text>
</g>
<!-- Trovare una cura per una malattia sconosciuta -->
<g id="node10" class="node">
<title>Trovare una cura per una malattia sconosciuta</title>
<polygon fill="none" stroke="#000000" points="633.9019,-468 359.6855,-468 359.6855,-432 633.9019,-432 633.9019,-468"/>
<text text-anchor="middle" x="496.7937" y="-445.8" font-family="Times,serif" font-size="14.00" fill="#000000">Trovare una cura per una malattia sconosciuta</text>
</g>
<!-- ProblemSconosciuto&#45;&gt;Trovare una cura per una malattia sconosciuta -->
<g id="edge7" class="edge">
<title>ProblemSconosciuto-&gt;Trovare una cura per una malattia sconosciuta</title>
<path fill="none" stroke="#000000" d="M193.8003,-408.4548C221.731,-413.2607 254.2123,-418.6393 283.728,-423 304.9994,-426.1427 327.4993,-429.2396 349.5948,-432.1519"/>
<polygon fill="#000000" stroke="#000000" points="349.3427,-435.6487 359.7125,-433.4765 350.2515,-428.7079 349.3427,-435.6487"/>
</g>
<!-- Prevedere l&#39;andamento del mercato azionario -->
<g id="node11" class="node">
<title>Prevedere l'andamento del mercato azionario</title>
<polygon fill="none" stroke="#000000" points="632.0086,-414 361.5788,-414 361.5788,-378 632.0086,-378 632.0086,-414"/>
<text text-anchor="middle" x="496.7937" y="-391.8" font-family="Times,serif" font-size="14.00" fill="#000000">Prevedere l'andamento del mercato azionario</text>
</g>
<!-- ProblemSconosciuto&#45;&gt;Prevedere l&#39;andamento del mercato azionario -->
<g id="edge8" class="edge">
<title>ProblemSconosciuto-&gt;Prevedere l'andamento del mercato azionario</title>
<path fill="none" stroke="#000000" d="M193.5717,-396C237.929,-396 297.0365,-396 351.2802,-396"/>
<polygon fill="#000000" stroke="#000000" points="351.3474,-399.5001 361.3474,-396 351.3474,-392.5001 351.3474,-399.5001"/>
</g>
<!-- Creare una intelligenza artificiale in grado di risolvere problemi completi -->
<g id="node12" class="node">
<title>Creare una intelligenza artificiale in grado di risolvere problemi completi</title>
<polygon fill="none" stroke="#000000" points="709.9251,-360 283.6623,-360 283.6623,-324 709.9251,-324 709.9251,-360"/>
<text text-anchor="middle" x="496.7937" y="-337.8" font-family="Times,serif" font-size="14.00" fill="#000000">Creare una intelligenza artificiale in grado di risolvere problemi completi</text>
</g>
<!-- ProblemSconosciuto&#45;&gt;Creare una intelligenza artificiale in grado di risolvere problemi completi -->
<g id="edge9" class="edge">
<title>ProblemSconosciuto-&gt;Creare una intelligenza artificiale in grado di risolvere problemi completi</title>
<path fill="none" stroke="#000000" d="M193.8003,-383.5452C221.731,-378.7393 254.2123,-373.3607 283.728,-369 301.3937,-366.39 319.9066,-363.8116 338.3316,-361.3443"/>
<polygon fill="#000000" stroke="#000000" points="338.8004,-364.8129 348.2518,-360.0253 337.8777,-357.874 338.8004,-364.8129"/>
</g>
</g>
</svg>