<?xml version="1.0" encoding="UTF-8" standalone="no"?>
<!DOCTYPE svg PUBLIC "-//W3C//DTD SVG 1.1//EN" "http://www.w3.org/Graphics/SVG/1.1/DTD/svg11.dtd">
<!-- Generated by graphviz version 2.40.1 (20161225.0304)
 -->
<!-- Title: G Pages: 1 -->
<svg width="1509pt" height="260pt" viewBox="0.00 0.00 1508.55 260.00" xmlns="http://www.w3.org/2000/svg" xmlns:xlink="http://www.w3.org/1999/xlink">
<g id="graph0" class="graph" transform="scale(1 1) rotate(0) translate(4 256)">
<title>G</title>
<polygon fill="#ffffff" stroke="transparent" points="-4,4 -4,-256 1504.5538,-256 1504.5538,4 -4,4"/>
<!-- Gioco dell&#39;imitazione -->
<g id="node1" class="node">
<title>Gioco dell'imitazione</title>
<ellipse fill="none" stroke="#000000" cx="839.2462" cy="-234" rx="95.5213" ry="18"/>
<text text-anchor="middle" x="839.2462" y="-229.8" font-family="Times,serif" font-size="14.00" fill="#000000">Gioco dell'imitazione</text>
</g>
<!-- Partecipanti -->
<g id="node2" class="node">
<title>Partecipanti</title>
<ellipse fill="none" stroke="#000000" cx="221.2462" cy="-162" rx="57.3166" ry="18"/>
<text text-anchor="middle" x="221.2462" y="-157.8" font-family="Times,serif" font-size="14.00" fill="#000000">Partecipanti</text>
</g>
<!-- Gioco dell&#39;imitazione&#45;&gt;Partecipanti -->
<g id="edge1" class="edge">
<title>Gioco dell'imitazione-&gt;Partecipanti</title>
<path fill="none" stroke="#000000" d="M757.818,-224.5132C633.3841,-210.0161 398.4666,-182.647 285.3292,-169.466"/>
<polygon fill="#000000" stroke="#000000" points="285.4342,-165.9546 275.0964,-168.2738 284.6241,-172.9076 285.4342,-165.9546"/>
</g>
<!-- Obiettivi -->
<g id="node6" class="node">
<title>Obiettivi</title>
<ellipse fill="none" stroke="#000000" cx="625.2462" cy="-162" rx="45.2401" ry="18"/>
<text text-anchor="middle" x="625.2462" y="-157.8" font-family="Times,serif" font-size="14.00" fill="#000000">Obiettivi</text>
</g>
<!-- Gioco dell&#39;imitazione&#45;&gt;Obiettivi -->
<g id="edge5" class="edge">
<title>Gioco dell'imitazione-&gt;Obiettivi</title>
<path fill="none" stroke="#000000" d="M792.5474,-218.2883C756.0129,-205.9963 705.5522,-189.0188 669.625,-176.9312"/>
<polygon fill="#000000" stroke="#000000" points="670.4948,-173.5311 659.9008,-173.6595 668.2626,-180.1657 670.4948,-173.5311"/>
</g>
<!-- Modalità di comunicazione -->
<g id="node10" class="node">
<title>Modalità di comunicazione</title>
<ellipse fill="none" stroke="#000000" cx="893.2462" cy="-162" rx="118.0806" ry="18"/>
<text text-anchor="middle" x="893.2462" y="-157.8" font-family="Times,serif" font-size="14.00" fill="#000000">Modalità di comunicazione</text>
</g>
<!-- Gioco dell&#39;imitazione&#45;&gt;Modalità di comunicazione -->
<g id="edge9" class="edge">
<title>Gioco dell'imitazione-&gt;Modalità di comunicazione</title>
<path fill="none" stroke="#000000" d="M852.8727,-215.8314C859.1879,-207.411 866.8091,-197.2495 873.7208,-188.0338"/>
<polygon fill="#000000" stroke="#000000" points="876.6111,-190.0134 879.8111,-179.9134 871.0111,-185.8134 876.6111,-190.0134"/>
</g>
<!-- Test di Turing -->
<g id="node12" class="node">
<title>Test di Turing</title>
<ellipse fill="none" stroke="#000000" cx="1202.2462" cy="-162" rx="66.0723" ry="18"/>
<text text-anchor="middle" x="1202.2462" y="-157.8" font-family="Times,serif" font-size="14.00" fill="#000000">Test di Turing</text>
</g>
<!-- Gioco dell&#39;imitazione&#45;&gt;Test di Turing -->
<g id="edge15" class="edge">
<title>Gioco dell'imitazione-&gt;Test di Turing</title>
<path fill="none" stroke="#000000" d="M905.4039,-220.8778C971.6928,-207.7296 1073.0309,-187.6295 1138.466,-174.6506"/>
<polygon fill="#000000" stroke="#000000" points="1139.5209,-178.0096 1148.6488,-172.6309 1138.1589,-171.1434 1139.5209,-178.0096"/>
</g>
<!-- A: Uomo -->
<g id="node3" class="node">
<title>A: Uomo</title>
<ellipse fill="none" stroke="#000000" cx="47.2462" cy="-90" rx="47.4937" ry="18"/>
<text text-anchor="middle" x="47.2462" y="-85.8" font-family="Times,serif" font-size="14.00" fill="#000000">A: Uomo</text>
</g>
<!-- Partecipanti&#45;&gt;A: Uomo -->
<g id="edge2" class="edge">
<title>Partecipanti-&gt;A: Uomo</title>
<path fill="none" stroke="#000000" d="M186.4529,-147.6028C158.2635,-135.9382 118.4702,-119.472 88.6447,-107.1304"/>
<polygon fill="#000000" stroke="#000000" points="89.9171,-103.8692 79.3387,-103.2796 87.2406,-110.3373 89.9171,-103.8692"/>
</g>
<!-- B: Donna -->
<g id="node4" class="node">
<title>B: Donna</title>
<ellipse fill="none" stroke="#000000" cx="161.2462" cy="-90" rx="48.1369" ry="18"/>
<text text-anchor="middle" x="161.2462" y="-85.8" font-family="Times,serif" font-size="14.00" fill="#000000">B: Donna</text>
</g>
<!-- Partecipanti&#45;&gt;B: Donna -->
<g id="edge3" class="edge">
<title>Partecipanti-&gt;B: Donna</title>
<path fill="none" stroke="#000000" d="M206.7219,-144.5708C199.3519,-135.7269 190.2661,-124.8239 182.1582,-115.0945"/>
<polygon fill="#000000" stroke="#000000" points="184.7274,-112.7103 175.6368,-107.2687 179.3499,-117.1916 184.7274,-112.7103"/>
</g>
<!-- C: Giudice -->
<g id="node5" class="node">
<title>C: Giudice</title>
<ellipse fill="none" stroke="#000000" cx="280.2462" cy="-90" rx="53.2878" ry="18"/>
<text text-anchor="middle" x="280.2462" y="-85.8" font-family="Times,serif" font-size="14.00" fill="#000000">C: Giudice</text>
</g>
<!-- Partecipanti&#45;&gt;C: Giudice -->
<g id="edge4" class="edge">
<title>Partecipanti-&gt;C: Giudice</title>
<path fill="none" stroke="#000000" d="M235.5284,-144.5708C242.7222,-135.7919 251.5786,-124.9841 259.5067,-115.3093"/>
<polygon fill="#000000" stroke="#000000" points="262.2599,-117.4714 265.891,-107.5182 256.8455,-113.0347 262.2599,-117.4714"/>
</g>
<!-- A: Ingannare C -->
<g id="node7" class="node">
<title>A: Ingannare C</title>
<ellipse fill="none" stroke="#000000" cx="422.2462" cy="-90" rx="70.6277" ry="18"/>
<text text-anchor="middle" x="422.2462" y="-85.8" font-family="Times,serif" font-size="14.00" fill="#000000">A: Ingannare C</text>
</g>
<!-- Obiettivi&#45;&gt;A: Ingannare C -->
<g id="edge6" class="edge">
<title>Obiettivi-&gt;A: Ingannare C</title>
<path fill="none" stroke="#000000" d="M591.2686,-149.9488C559.0457,-138.52 510.2064,-121.1977 473.2996,-108.1076"/>
<polygon fill="#000000" stroke="#000000" points="474.3064,-104.7511 463.7117,-104.707 471.9664,-111.3485 474.3064,-104.7511"/>
</g>
<!-- B: Aiutare C -->
<g id="node8" class="node">
<title>B: Aiutare C</title>
<ellipse fill="none" stroke="#000000" cx="571.2462" cy="-90" rx="60.2691" ry="18"/>
<text text-anchor="middle" x="571.2462" y="-85.8" font-family="Times,serif" font-size="14.00" fill="#000000">B: Aiutare C</text>
</g>
<!-- Obiettivi&#45;&gt;B: Aiutare C -->
<g id="edge7" class="edge">
<title>Obiettivi-&gt;B: Aiutare C</title>
<path fill="none" stroke="#000000" d="M612.1743,-144.5708C605.7043,-135.9441 597.7648,-125.3582 590.6062,-115.8134"/>
<polygon fill="#000000" stroke="#000000" points="593.3729,-113.6689 584.5728,-107.7689 587.7729,-117.8689 593.3729,-113.6689"/>
</g>
<!-- C: Individuare uomo e donna -->
<g id="node9" class="node">
<title>C: Individuare uomo e donna</title>
<ellipse fill="none" stroke="#000000" cx="774.2462" cy="-90" rx="124.4302" ry="18"/>
<text text-anchor="middle" x="774.2462" y="-85.8" font-family="Times,serif" font-size="14.00" fill="#000000">C: Individuare uomo e donna</text>
</g>
<!-- Obiettivi&#45;&gt;C: Individuare uomo e donna -->
<g id="edge8" class="edge">
<title>Obiettivi-&gt;C: Individuare uomo e donna</title>
<path fill="none" stroke="#000000" d="M654.3286,-147.9468C675.6561,-137.6408 705.0139,-123.4545 729.3431,-111.6981"/>
<polygon fill="#000000" stroke="#000000" points="730.913,-114.8268 738.394,-107.3245 727.8673,-108.5241 730.913,-114.8268"/>
</g>
<!-- Risposte dattiloscritte -->
<g id="node11" class="node">
<title>Risposte dattiloscritte</title>
<ellipse fill="none" stroke="#000000" cx="1011.2462" cy="-90" rx="94.9725" ry="18"/>
<text text-anchor="middle" x="1011.2462" y="-85.8" font-family="Times,serif" font-size="14.00" fill="#000000">Risposte dattiloscritte</text>
</g>
<!-- Modalità di comunicazione&#45;&gt;Risposte dattiloscritte -->
<g id="edge10" class="edge">
<title>Modalità di comunicazione-&gt;Risposte dattiloscritte</title>
<path fill="none" stroke="#000000" d="M922.1122,-144.3868C937.6559,-134.9026 957.0138,-123.0909 973.7145,-112.9007"/>
<polygon fill="#000000" stroke="#000000" points="975.9648,-115.6278 982.6782,-107.4313 972.3187,-109.6523 975.9648,-115.6278"/>
</g>
<!-- Sostituzione di A -->
<g id="node13" class="node">
<title>Sostituzione di A</title>
<ellipse fill="none" stroke="#000000" cx="1202.2462" cy="-90" rx="78.1888" ry="18"/>
<text text-anchor="middle" x="1202.2462" y="-85.8" font-family="Times,serif" font-size="14.00" fill="#000000">Sostituzione di A</text>
</g>
<!-- Test di Turing&#45;&gt;Sostituzione di A -->
<g id="edge11" class="edge">
<title>Test di Turing-&gt;Sostituzione di A</title>
<path fill="none" stroke="#000000" d="M1202.2462,-143.8314C1202.2462,-136.131 1202.2462,-126.9743 1202.2462,-118.4166"/>
<polygon fill="#000000" stroke="#000000" points="1205.7463,-118.4132 1202.2462,-108.4133 1198.7463,-118.4133 1205.7463,-118.4132"/>
</g>
<!-- Criterio di intelligenza -->
<g id="node15" class="node">
<title>Criterio di intelligenza</title>
<ellipse fill="none" stroke="#000000" cx="1397.2462" cy="-90" rx="98.4275" ry="18"/>
<text text-anchor="middle" x="1397.2462" y="-85.8" font-family="Times,serif" font-size="14.00" fill="#000000">Criterio di intelligenza</text>
</g>
<!-- Test di Turing&#45;&gt;Criterio di intelligenza -->
<g id="edge13" class="edge">
<title>Test di Turing-&gt;Criterio di intelligenza</title>
<path fill="none" stroke="#000000" d="M1241.7073,-147.4297C1271.0561,-136.5932 1311.4361,-121.6837 1343.6972,-109.7719"/>
<polygon fill="#000000" stroke="#000000" points="1345.2588,-112.9264 1353.4274,-106.1792 1342.8341,-106.3597 1345.2588,-112.9264"/>
</g>
<!-- Macchina -->
<g id="node14" class="node">
<title>Macchina</title>
<ellipse fill="none" stroke="#000000" cx="1202.2462" cy="-18" rx="49.2163" ry="18"/>
<text text-anchor="middle" x="1202.2462" y="-13.8" font-family="Times,serif" font-size="14.00" fill="#000000">Macchina</text>
</g>
<!-- Sostituzione di A&#45;&gt;Macchina -->
<g id="edge12" class="edge">
<title>Sostituzione di A-&gt;Macchina</title>
<path fill="none" stroke="#000000" d="M1202.2462,-71.8314C1202.2462,-64.131 1202.2462,-54.9743 1202.2462,-46.4166"/>
<polygon fill="#000000" stroke="#000000" points="1205.7463,-46.4132 1202.2462,-36.4133 1198.7463,-46.4133 1205.7463,-46.4132"/>
</g>
<!-- Indistinguibile da uomo -->
<g id="node16" class="node">
<title>Indistinguibile da uomo</title>
<ellipse fill="none" stroke="#000000" cx="1397.2462" cy="-18" rx="103.1157" ry="18"/>
<text text-anchor="middle" x="1397.2462" y="-13.8" font-family="Times,serif" font-size="14.00" fill="#000000">Indistinguibile da uomo</text>
</g>
<!-- Criterio di intelligenza&#45;&gt;Indistinguibile da uomo -->
<g id="edge14" class="edge">
<title>Criterio di intelligenza-&gt;Indistinguibile da uomo</title>
<path fill="none" stroke="#000000" d="M1397.2462,-71.8314C1397.2462,-64.131 1397.2462,-54.9743 1397.2462,-46.4166"/>
<polygon fill="#000000" stroke="#000000" points="1400.7463,-46.4132 1397.2462,-36.4133 1393.7463,-46.4133 1400.7463,-46.4132"/>
</g>
</g>
</svg>